<?xml version="1.0" standalone="no"?>
<!DOCTYPE svg PUBLIC "-//W3C//DTD SVG 20010904//EN"
 "http://www.w3.org/TR/2001/REC-SVG-20010904/DTD/svg10.dtd">
<svg version="1.0" xmlns="http://www.w3.org/2000/svg"
 width="300.000000pt" height="300.000000pt" viewBox="0 0 300.000000 300.000000"
 preserveAspectRatio="xMidYMid meet">
<metadata>
Created by potrace 1.11, written by Peter Selinger 2001-2013
</metadata>
<g transform="translate(0.000000,300.000000) scale(0.100000,-0.100000)"
fill="#000000" stroke="none">
<path d="M1350 2993 c-188 -27 -339 -66 -420 -108 -16 -8 -30 -14 -30 -11 0 4
-78 -35 -165 -83 -22 -12 -72 -46 -110 -74 -343 -255 -545 -588 -610 -1007
-18 -114 -12 -369 10 -480 22 -107 19 -95 39 -162 10 -32 18 -61 18 -65 2 -9
59 -139 86 -193 21 -43 102 -173 112 -180 4 -3 9 -10 11 -16 10 -27 229 -264
244 -264 3 0 32 -22 65 -48 33 -27 72 -55 87 -63 15 -8 30 -16 33 -19 16 -16
169 -93 230 -115 19 -7 44 -16 55 -21 31 -11 34 -12 138 -38 54 -14 132 -29
175 -35 78 -10 338 -7 402 4 350 63 616 199 844 432 109 111 159 175 228 293
68 116 144 301 162 390 3 14 12 61 22 105 21 106 26 361 8 480 -24 158 -69
304 -138 445 -35 71 -101 183 -125 212 -6 7 -32 40 -58 73 -26 33 -79 91 -118
128 -76 75 -233 197 -252 197 -7 0 -13 5 -13 10 0 6 -6 10 -14 10 -8 0 -16 3
-18 8 -10 22 -278 134 -357 148 -14 3 -28 7 -33 10 -39 24 -411 51 -508 37z"/>
</g>
</svg>
